<?xml version="1.0" encoding="UTF-8"?> <svg xmlns="http://www.w3.org/2000/svg" id="Layer_1" data-name="Layer 1" viewBox="0 0 706.43 290.45"><defs><style>.cls-1{fill:#f04c38;}.cls-2{fill:#101d34;}</style></defs><path class="cls-1" d="M214.18,240.69l8.74-7-83.48-81.54-6.35,3.17c-25.94,13-42.83,30.16-50.18,51.09A55.21,55.21,0,0,0,96.7,264l7.88,7.66c6.78,7.62,9.71,15.89,9,25.29-2.26,28.59-36.68,56.73-37,57l-8.75,7,83.49,81.55,6.34-3.17c17.74-8.87,31.37-19.86,40.54-32.66,17.32-24.22,14.12-58.32-7.46-79.31L186.12,323c-6.77-7.61-9.7-15.89-9-25.28C179.42,269.11,213.84,241,214.18,240.69ZM182,395.14c-6.2,8.67-15.28,16.43-27,23.13L97.32,362c12.12-11.72,33.4-35.81,36-62.5l40.36,39.36.13-.14,3,2.95C191.39,355.88,193.6,378.86,182,395.14ZM157.4,295.22l-42.11-41.06-.09.09-4.61-4.51a35.25,35.25,0,0,1-8.9-36.77c5-14.27,16.48-26.55,34.11-36.58l57.58,56.25C181.25,244.37,159.94,268.5,157.4,295.22Z" transform="translate(-67.78 -152.11)"></path><path class="cls-2" d="M401.28,278.59c-21,0-41,13.9-44.71,37.51-4.25-5.24-10.46-9.1-18.13-12l-14-5.94c-11-4.12-18.65-6.64-18.65-13.53,0-6.69,5.79-10.22,14.32-10.22,11.19,0,18.33,3.15,26.39,8.94l13.05-16.33a55.45,55.45,0,0,0-38-15c-24.88,0-42,15.15-42,34.12,0,16.66,11.58,26.39,24.27,31.21l14.91,6.37c10.84,4.54,17.64,6.53,17.64,14.77,0,5.6-5.08,9.86-16.07,9.86s-21.78-4.86-30.44-11.95L275,354.24a66,66,0,0,0,43.59,16.53c22.62,0,37.35-10.5,42.38-24.41,7.82,15.19,24,23.61,43.28,23.61a66.65,66.65,0,0,0,34.55-10.19l-13.64-13.22a43.67,43.67,0,0,1-17.38,3.71c-14.29,0-23.53-5.66-26.08-18.27h59.53a74.71,74.71,0,0,0,1.08-11.57C442.31,296.74,428.16,278.59,401.28,278.59Zm.86,19.66c10,0,15.93,5.63,17.25,16.42H382C384.63,303.74,392,298.25,402.14,298.25Z" transform="translate(-67.78 -152.11)"></path><path class="cls-2" d="M753.77,329.49c-12.09,0-20.44,9.19-20.44,20.64,0,11.62,8.35,20.64,20.44,20.64s20.45-9,20.45-20.64C774.22,338.68,765.86,329.49,753.77,329.49Z" transform="translate(-67.78 -152.11)"></path><path class="cls-2" d="M681.45,278.59c-23.35,0-45.35,17.12-45.35,45.64a47.53,47.53,0,0,0,5.51,23,37.16,37.16,0,0,1-13,2.64c-7.27,0-14.2-3.5-14.2-14.27V253.42H588.56v12.44h0v68.71c0,22.11,11.41,36.2,33.36,36.2,10.77,0,16.9-1.74,25.85-4.66h0l.06,0,.09,0h0l8.74-3.24C664.45,367.5,674,370,684.42,370A66.65,66.65,0,0,0,719,359.78l-13.64-13.22A43.67,43.67,0,0,1,688,350.27c-14.29,0-23.53-5.66-26.08-18.27H721.4a74.71,74.71,0,0,0,1.08-11.57C722.48,296.74,708.33,278.59,681.45,278.59Zm.86,19.66c10,0,15.93,5.63,17.25,16.42H662.2C664.8,303.74,672.16,298.25,682.31,298.25Z" transform="translate(-67.78 -152.11)"></path><path class="cls-2" d="M495.72,349.66c-12.72,0-18.32-5-18.32-18.25V301.59h37.7L495.44,281h-18v-27h-.17v-.12H451.41v70.38h.12v7.43c0,22.86,9.86,38.23,37.6,38.23,11.54,0,20.65-2.38,28.36-4.68l-16.36-15.94A47,47,0,0,1,495.72,349.66Z" transform="translate(-67.78 -152.11)"></path><path class="cls-2" d="M566.85,349.66c-12.71,0-18.31-5-18.31-18.25V301.59h37.7L566.58,281h-18v-27h-.17v-.12H522.55v70.38h.12v7.43c0,22.86,9.86,38.23,37.6,38.23,11.54,0,20.65-2.38,28.35-4.68l-16.35-15.94A47.33,47.33,0,0,1,566.85,349.66Z" transform="translate(-67.78 -152.11)"></path></svg> 