<?xml version="1.0" standalone="no"?>
<!DOCTYPE svg PUBLIC "-//W3C//DTD SVG 20010904//EN"
 "http://www.w3.org/TR/2001/REC-SVG-20010904/DTD/svg10.dtd">
<svg version="1.0" xmlns="http://www.w3.org/2000/svg"
 width="1163.000000pt" height="1163.000000pt" viewBox="0 0 1163.000000 1163.000000"
 preserveAspectRatio="xMidYMid meet">
<metadata>
Created by potrace 1.11, written by Peter Selinger 2001-2013
</metadata>
<g transform="translate(0.000000,1163.000000) scale(0.100000,-0.100000)"
fill="#000000" stroke="none">
<path d="M5545 11611 c-6 -5 -84 -46 -175 -91 -289 -145 -497 -265 -705 -408
-100 -68 -273 -197 -285 -212 -3 -3 -15 -13 -27 -21 -98 -67 -414 -381 -537
-534 -345 -430 -552 -892 -613 -1370 -10 -78 -10 -392 0 -475 33 -283 109
-535 232 -775 128 -249 236 -387 536 -685 135 -135 269 -276 297 -313 123
-162 213 -354 246 -522 3 -16 8 -41 11 -54 22 -113 21 -317 -4 -458 -6 -32
-13 -72 -15 -88 -27 -161 -160 -487 -288 -710 -39 -66 -154 -248 -171 -270 -4
-5 -44 -59 -88 -120 -82 -112 -230 -294 -303 -374 -177 -193 -333 -349 -505
-504 -30 -26 -141 -118 -248 -204 -189 -152 -193 -156 -176 -176 20 -21 209
-208 368 -362 55 -54 197 -193 316 -309 236 -231 843 -824 1009 -986 58 -56
247 -241 420 -410 173 -169 367 -358 430 -420 125 -122 761 -744 771 -755 6
-5 366 173 514 255 226 125 607 385 730 497 11 10 41 35 68 56 53 44 279 265
353 347 273 303 474 658 571 1005 37 133 64 279 80 420 10 89 10 419 1 507
-47 417 -176 775 -403 1118 -105 158 -209 281 -372 442 -71 70 -145 144 -164
165 -172 193 -296 458 -327 698 -13 101 -4 407 13 434 2 4 6 26 10 51 10 68
72 263 121 385 56 137 145 306 238 453 39 62 76 121 81 130 29 51 258 348 335
436 27 30 34 38 119 132 188 208 451 458 631 600 41 32 80 64 87 69 6 6 50 41
97 79 47 37 86 71 86 75 0 6 -198 201 -691 681 -70 69 -268 262 -440 430 -171
168 -357 349 -413 404 -55 54 -244 238 -420 410 -175 171 -368 360 -430 419
-61 60 -257 252 -436 427 -554 541 -512 503 -535 481z m60 -1136 c56 -55 252
-246 435 -425 183 -179 372 -363 420 -410 48 -47 240 -234 426 -416 187 -183
386 -378 444 -434 58 -56 171 -167 252 -246 l147 -145 -120 -122 c-343 -347
-663 -756 -874 -1117 -71 -121 -183 -340 -215 -420 -12 -30 -26 -64 -31 -75
-56 -127 -147 -425 -163 -535 -3 -19 -7 -44 -10 -55 -6 -32 -20 -149 -18 -157
1 -5 -2 -8 -7 -8 -9 0 -32 22 -475 454 -164 160 -342 334 -396 386 -54 52
-236 230 -405 395 -169 165 -334 325 -366 355 -112 103 -284 275 -327 325
-105 122 -211 315 -261 474 -17 53 -33 108 -35 123 -3 15 -7 31 -10 36 -19 31
-28 383 -12 482 32 197 134 454 263 660 140 224 355 465 583 650 30 25 57 47
60 50 29 31 262 191 424 291 l91 56 38 -36 c22 -20 85 -81 142 -136z m40
-5060 c131 -126 263 -255 295 -285 32 -30 176 -170 320 -310 387 -376 407
-395 623 -604 301 -289 397 -406 499 -606 92 -180 126 -279 162 -470 37 -200
37 -411 -1 -605 -21 -110 -21 -110 -23 -110 -1 0 -3 -7 -5 -15 -10 -52 -71
-213 -111 -292 -167 -333 -510 -689 -939 -974 -117 -78 -258 -164 -269 -164
-5 0 -28 19 -51 42 -36 38 -513 504 -815 798 -58 56 -249 243 -425 415 -424
414 -603 589 -825 806 l-186 181 101 102 c149 152 281 296 380 417 346 419
587 802 748 1191 65 155 140 386 163 503 7 35 18 90 19 95 1 3 5 32 10 65 4
33 9 67 11 75 1 8 3 23 3 34 1 15 8 11 40 -20 21 -22 145 -142 276 -269z"/>
</g>
</svg>
